<svg width="56" height="57" viewBox="0 0 56 57" fill="none" xmlns="http://www.w3.org/2000/svg">
<g clip-path="url(#clip0_58_815)">
<path d="M41.0667 0.501099C40.0762 0.50111 39.1264 0.894333 38.426 1.59426C37.7257 2.29419 37.3322 3.2435 37.3322 4.23334V6.10128H3.73443C2.74402 6.10129 1.79417 6.49449 1.09384 7.19438C0.393503 7.89427 3.93184e-05 8.84353 1.55794e-10 9.83334C-4.47926e-06 10.3235 0.0965858 10.8088 0.284256 11.2616C0.471926 11.7144 0.747001 12.1258 1.09377 12.4724C1.44055 12.819 1.85223 13.0939 2.30531 13.2815C2.7584 13.469 3.24401 13.5656 3.73443 13.5656H37.3322V15.4357C37.3322 16.4256 37.7257 17.3749 38.426 18.0748C39.1264 18.7747 40.0762 19.1679 41.0667 19.1679C42.0571 19.1679 43.007 18.7747 43.7073 18.0748C44.4077 17.3749 44.8011 16.4256 44.8011 15.4357V13.5656H52.2654C52.7558 13.5656 53.2415 13.4691 53.6946 13.2815C54.1477 13.094 54.5594 12.8191 54.9062 12.4725C55.253 12.1259 55.528 11.7145 55.7157 11.2616C55.9034 10.8088 56 10.3235 56 9.83334C56 9.34322 55.9034 8.8579 55.7157 8.4051C55.528 7.95229 55.2529 7.54087 54.9061 7.19431C54.5593 6.84776 54.1476 6.57286 53.6945 6.38532C53.2414 6.19778 52.7558 6.10126 52.2654 6.10128H44.8011V4.23334C44.8011 3.2435 44.4077 2.29419 43.7073 1.59426C43.007 0.894333 42.0571 0.50111 41.0667 0.501099ZM14 19.1678C13.5096 19.1677 13.0239 19.2643 12.5708 19.4518C12.1177 19.6394 11.706 19.9143 11.3592 20.2609C11.0124 20.6074 10.7373 21.0189 10.5497 21.4717C10.362 21.9245 10.2654 22.4099 10.2654 22.9V24.7678H3.73552C3.2451 24.7678 2.75949 24.8643 2.30641 25.0519C1.85332 25.2394 1.44164 25.5144 1.09487 25.8609C0.748094 26.2075 0.47302 26.6189 0.28535 27.0717C0.0976795 27.5246 0.00108921 28.0099 0.00109373 28.5C0.00108921 28.9901 0.0976795 29.4754 0.28535 29.9283C0.47302 30.3811 0.748094 30.7925 1.09487 31.1391C1.44164 31.4857 1.85332 31.7606 2.30641 31.9481C2.75949 32.1357 3.2451 32.2322 3.73552 32.2322H10.2654V34.1024C10.2654 34.5925 10.362 35.0778 10.5497 35.5307C10.7374 35.9835 11.0124 36.3949 11.3592 36.7415C11.706 37.0881 12.1177 37.363 12.5708 37.5506C13.0239 37.7381 13.5096 37.8346 14 37.8346C14.9904 37.8346 15.9403 37.4414 16.6406 36.7414C17.341 36.0415 17.7344 35.0922 17.7344 34.1024V32.2322H52.2667C52.7571 32.2322 53.2427 32.1357 53.6958 31.9481C54.1489 31.7606 54.5606 31.4857 54.9073 31.1391C55.2541 30.7925 55.5292 30.3811 55.7168 29.9283C55.9045 29.4754 56.0011 28.9901 56.0011 28.5C56.0011 28.0099 55.9045 27.5246 55.7168 27.0717C55.5292 26.6189 55.2541 26.2075 54.9073 25.8609C54.5606 25.5144 54.1489 25.2394 53.6958 25.0519C53.2427 24.8643 52.7571 24.7678 52.2667 24.7678H17.7344V22.9C17.7344 21.9102 17.341 20.9609 16.6406 20.2609C15.9403 19.561 14.9904 19.1678 14 19.1678ZM26.1333 37.8346C25.1429 37.8346 24.1931 38.2278 23.4927 38.9277C22.7924 39.6276 22.3989 40.5769 22.3989 41.5667V43.4344H3.73552C3.2451 43.4344 2.75949 43.531 2.30641 43.7185C1.85332 43.9061 1.44164 44.181 1.09487 44.5276C0.748094 44.8742 0.47302 45.2856 0.28535 45.7384C0.0976795 46.1912 0.00108921 46.6766 0.00109373 47.1667C0.00113312 48.1565 0.394597 49.1057 1.09493 49.8056C1.79527 50.5055 2.74511 50.8987 3.73552 50.8987H22.3989V52.769C22.3989 53.7589 22.7924 54.7081 23.4927 55.408C24.1931 56.1079 25.1429 56.5011 26.1333 56.5011C27.1237 56.5011 28.0736 56.1079 28.7739 55.408C29.4743 54.7081 29.8677 53.7589 29.8678 52.769V50.8987H52.2667C53.2571 50.8987 54.2069 50.5055 54.9073 49.8056C55.6076 49.1057 56.0011 48.1565 56.0011 47.1667C56.0011 46.6766 55.9045 46.1912 55.7168 45.7384C55.5292 45.2856 55.2541 44.8742 54.9073 44.5276C54.5606 44.181 54.1489 43.9061 53.6958 43.7185C53.2427 43.531 52.7571 43.4344 52.2667 43.4344H29.8678V41.5667C29.8677 40.5769 29.4743 39.6276 28.7739 38.9277C28.0736 38.2278 27.1237 37.8346 26.1333 37.8346Z" fill="white"/>
</g>
<defs>
<clipPath id="clip0_58_815">
<rect width="56" height="56" fill="white" transform="translate(0 0.5)"/>
</clipPath>
</defs>
</svg>
