<svg width="57" height="57" viewBox="0 0 57 57" fill="none" xmlns="http://www.w3.org/2000/svg">
<g clip-path="url(#clip0_58_777)">
<path d="M54.1282 0.557022H2.88322C1.57188 0.557022 0.5 1.6289 0.5 2.94024V54.0598C0.5 55.3711 1.57188 56.443 2.88322 56.443H54.0028C55.3141 56.443 56.386 55.3711 56.5 54.1852V2.94024C56.5 1.6289 55.4281 0.557022 54.1282 0.557022ZM51.745 5.19803V13.6362H5.14101V5.19803H51.745ZM21.5499 32.6564V18.3913H35.3361V32.6564H21.5499ZM35.3361 37.4114V51.7906H21.5499V37.4114H35.3361ZM16.7948 32.6564H5.14101V18.3913H16.7948V32.6564ZM40.0911 18.3913H51.745V32.6564H40.0911V18.3913ZM5.14101 37.4114H16.7948V51.7906H5.14101V37.4114ZM40.0911 51.7906V37.4114H51.745V51.7906H40.0911Z" fill="white"/>
</g>
<defs>
<clipPath id="clip0_58_777">
<rect width="56" height="56" fill="white" transform="translate(0.5 0.5)"/>
</clipPath>
</defs>
</svg>
