<svg width="56" height="57" viewBox="0 0 56 57" fill="none" xmlns="http://www.w3.org/2000/svg">
<path d="M54.8099 25L51.6249 15.62L30.1699 3.47499C29.5057 3.10728 28.759 2.91437 27.9999 2.91437C27.2407 2.91437 26.494 3.10728 25.8299 3.47499L4.37487 15.62L1.18987 25C0.849176 25.9736 0.866364 27.0367 1.23836 27.9987C1.61035 28.9608 2.31283 29.7589 3.21987 30.25L4.37487 30.88V39C4.42519 39.72 4.65285 40.4164 5.03758 41.0271C5.42231 41.6377 5.95215 42.1438 6.57987 42.5L25.8299 53.385C26.494 53.7527 27.2407 53.9456 27.9999 53.9456C28.759 53.9456 29.5057 53.7527 30.1699 53.385L49.4199 42.5C50.0476 42.1438 50.5774 41.6377 50.9622 41.0271C51.3469 40.4164 51.5746 39.72 51.6249 39V30.88L52.7799 30.25C53.6869 29.7589 54.3894 28.9608 54.7614 27.9987C55.1334 27.0367 55.1506 25.9736 54.8099 25ZM34.9999 35.045L33.3199 30.565L48.9999 21.955L50.5399 26.435L34.9999 35.045ZM27.9999 7.28999L47.1099 18L27.9999 28.5L8.88987 18L27.9999 7.28999ZM5.31987 26.435L6.99987 21.955L22.6799 30.565L20.9999 35.045L5.31987 26.435ZM8.81987 33.26L23.6949 41.38L25.8649 34.94V48.485L8.74987 39L8.81987 33.26ZM47.2499 39L30.1699 48.485V34.94L32.3749 41.38L47.2499 33.26V39Z" fill="white"/>
</svg>
