<svg width="181" height="1" viewBox="0 0 181 1" fill="none" xmlns="http://www.w3.org/2000/svg">
<path d="M176.409 -7.7486e-06L176.409 0.499992V0.999992L168.227 0.999993V0.499993V-7.39098e-06L176.409 -7.7486e-06ZM151.864 -6.55651e-06L160.045 -7.03335e-06V0.499993V0.999993L151.864 0.999993V0.499993V-6.55651e-06ZM143.682 0.499994V0.999994L135.5 0.999994V0.499994L135.5 -5.84126e-06L143.682 -6.19888e-06L143.682 0.499994ZM127.318 0.499994V0.999994L119.136 0.999995V0.499995L119.136 -5.126e-06L127.318 -5.48363e-06L127.318 0.499994ZM110.955 0.499995V0.999995L102.773 0.999996V0.499996L102.773 -4.41074e-06L110.955 -4.76837e-06L110.955 0.499995ZM94.5909 0.499996V0.999996L86.4091 0.999996V0.499996L86.4091 -3.69549e-06L94.5909 -4.05312e-06L94.5909 0.499996ZM78.2273 0.499997V0.999997L70.0455 0.999997V0.499997L70.0454 -2.98023e-06L78.2273 -3.33786e-06L78.2273 0.499997ZM61.8637 0.499997V0.999997L53.6818 0.999998V0.499998L53.6818 -2.26498e-06L61.8636 -2.6226e-06L61.8637 0.499997ZM45.5 0.499998V0.999998L37.3182 0.999998V0.499998L37.3182 -1.54972e-06L45.5 -1.90735e-06L45.5 0.499998ZM29.1364 0.499999V0.999999L20.9545 0.999999V0.499999L20.9545 -8.34465e-07L29.1364 -1.3113e-06L29.1364 0.499999ZM12.7727 0.499999V0.999999L4.59089 1V0.5H4.59091V-1.19209e-07L12.7727 -5.96046e-07V0.499999H12.7727Z" stroke="white" stroke-opacity="0.3" stroke-dasharray="8 8"/>
</svg>
