<svg width="1" height="180" viewBox="0 0 1 180" fill="none" xmlns="http://www.w3.org/2000/svg">
<path d="M1.00001 175.909L0.500008 175.909H7.68923e-06L7.33159e-06 167.727H0.500007H1.00001L1.00001 175.909ZM1.00001 151.364L1.00001 159.545H0.500007H6.97395e-06L6.61631e-06 151.364H0.500007H1.00001ZM0.500006 143.182H6.25868e-06L5.90104e-06 135H0.500006L1.00001 135L1.00001 143.182L0.500006 143.182ZM0.500006 126.818H5.5434e-06L5.18576e-06 118.636H0.500005L1.00001 118.636L1.00001 126.818L0.500006 126.818ZM0.500005 110.455H4.82812e-06L4.47048e-06 102.273H0.500004L1 102.273L1 110.455L0.500005 110.455ZM0.500004 94.0909H4.11284e-06L3.75521e-06 85.9091H0.500004L1 85.9091L1 94.0909L0.500004 94.0909ZM0.500003 77.7273H3.39757e-06L3.03993e-06 69.5455H0.500003L1 69.5454L1 77.7273L0.500003 77.7273ZM0.500003 61.3637H2.68229e-06L2.32465e-06 53.1818H0.500002L1 53.1818L1 61.3636L0.500003 61.3637ZM0.500002 45H1.96701e-06L1.60937e-06 36.8182H0.500002L1 36.8182L1 45L0.500002 45ZM0.500001 28.6364H1.25174e-06L8.94097e-07 20.4545H0.500001L1 20.4545L1 28.6364L0.500001 28.6364ZM0.500001 12.2727H5.36457e-07L1.78819e-07 4.09089H0.5V4.09091H1L1 12.2727H0.500001V12.2727Z" stroke="white" stroke-opacity="0.3" stroke-dasharray="8 8"/>
</svg>
