<svg width="53" height="52" viewBox="0 0 53 52" fill="none" xmlns="http://www.w3.org/2000/svg">
<g clip-path="url(#clip0_60_1047)">
<path d="M40.9139 11.005V6.9837H11.8332V10.8406C8.79933 12.7882 7.26172 15.9303 7.26172 20.19V40C7.26172 47.9627 12.7733 52 23.6431 52H29.3572C40.2281 52 45.7384 47.9627 45.7384 40V20.1899C45.7384 16.0802 44.1164 12.9938 40.9139 11.005ZM43.4527 40.0006C43.4527 46.5377 38.8424 49.7149 29.3572 49.7149H23.6431C14.1585 49.7149 9.5476 46.5377 9.5476 40.0006V20.1909C9.5476 16.5039 10.8513 13.9834 13.5339 12.4855L14.1191 12.1585V9.26945H38.6284V12.3383L39.2221 12.6638C42.069 14.2211 43.4528 16.683 43.4528 20.19L43.4527 40.0006ZM11.1195 3.7143V1.52388C11.1195 0.682733 11.8021 0 12.6432 0H40.3576C41.1996 0 41.8813 0.682733 41.8813 1.52388V3.7143C41.8813 4.55558 41.1996 5.23818 40.3576 5.23818H12.6432C11.8021 5.23805 11.1195 4.55545 11.1195 3.7143ZM26.5001 18.4016C19.9178 18.4016 14.564 23.7567 14.564 30.3382C14.564 36.9207 19.9178 42.2761 26.5001 42.2761C32.0405 42.2761 36.7084 38.482 38.0493 33.3578L38.2576 32.3851C38.373 31.7193 38.4369 31.0361 38.4369 30.3382C38.4378 23.7567 33.0821 18.4016 26.5001 18.4016ZM36.9782 32.2169C35.1776 33.1611 31.9792 31.972 31.6877 34.7459C31.5627 36.3742 32.9868 37.13 33.4809 38.3667C32.0541 39.6107 30.2935 40.4789 28.3514 40.8213C28.6252 40.6182 28.7963 40.2886 28.8758 39.9615C29.0537 39.2282 28.4079 38.651 28.3461 37.9516C28.2619 36.9992 28.0514 35.6806 26.8299 35.639C26.3426 35.6234 25.7076 35.8919 25.2902 35.563C24.9055 35.2595 24.5778 34.9515 24.0735 34.8815C22.8896 34.7178 21.938 35.7876 21.6123 36.8162C21.2983 37.8055 21.6494 38.9322 21.898 39.9382C20.388 39.2104 19.0751 38.1354 18.0617 36.819C18.9502 37.2225 19.8393 37.1572 19.928 35.968C20.0354 34.5306 17.584 33.2208 17.4982 31.7728C17.6043 31.4843 17.6795 31.1226 17.7275 30.7281C18.1785 29.7966 19.07 29.1656 18.4382 27.7682C18.1757 27.1268 17.3595 26.7772 16.5558 26.5465C17.4263 24.2716 19.0546 22.3699 21.1326 21.1506C24.4719 23.5737 21.412 29.2087 24.5908 30.874C27.3335 32.1636 25.8806 27.6476 28.1399 27.4863C28.9468 27.4863 29.268 28.9379 29.9139 29.261C30.3982 29.4224 31.3664 28.4535 32.8172 29.6641C34.27 30.874 34.3231 29.4483 34.6464 27.9968C34.8069 26.5443 33.1393 26.6791 33.1393 25.8726C32.8165 23.4528 33.9468 23.291 31.8499 21.1941C31.8016 21.1461 31.7474 21.0966 31.6938 21.0479C34.9454 22.8727 37.1478 26.3518 37.1478 30.3367C37.1476 30.9802 37.0868 31.606 36.9782 32.2169Z" fill="#997E4A"/>
</g>
<defs>
<clipPath id="clip0_60_1047">
<rect width="52" height="52" fill="white" transform="translate(0.5)"/>
</clipPath>
</defs>
</svg>
