<svg width="52" height="52" viewBox="0 0 52 52" fill="none" xmlns="http://www.w3.org/2000/svg">
<g clip-path="url(#clip0_60_1050)">
<path d="M39.804 13.3182C41.2222 12.63 42.2103 11.1889 42.2103 9.50909C42.2103 7.16599 40.305 5.26026 37.9634 5.26026H29.6647C29.82 4.84043 29.9161 4.39108 29.9161 3.9161C29.9163 1.75391 28.1619 0 25.9983 0C23.8381 0 22.0836 1.75391 22.0836 3.91599C22.0836 4.39098 22.1799 4.84033 22.3353 5.26016H14.036C11.6949 5.26016 9.78955 7.16599 9.78955 9.5071C9.78955 11.1869 10.7778 12.63 12.198 13.3168C11.203 14.1221 10.5539 15.3357 10.5539 16.7114V40.5703C10.5539 41.5567 10.8948 42.4588 11.4472 43.1935C10.8948 43.9267 10.5539 44.8288 10.5539 45.8151V47.616C10.5539 50.0329 12.5216 52.0001 14.938 52.0001H37.0634C39.4805 52.0001 41.4482 50.0328 41.4482 47.616V45.8151C41.4482 44.8288 41.1072 43.9267 40.5548 43.1935C41.1072 42.4588 41.4482 41.5567 41.4482 40.5703V16.7113C41.4482 15.3357 40.7989 14.1221 39.804 13.3182ZM14.079 16.7113C14.079 16.2377 14.465 15.8521 14.938 15.8521H37.0634C37.5369 15.8521 37.9225 16.2377 37.9225 16.7113V40.5702C37.9225 41.0434 37.5369 41.4287 37.0634 41.4287H14.938C14.465 41.4287 14.079 41.0434 14.079 40.5702V16.7113ZM37.9224 47.6158C37.9224 48.0894 37.5368 48.4749 37.0633 48.4749H14.938C14.465 48.4749 14.079 48.0894 14.079 47.6158V45.815C14.079 45.3419 14.465 44.9559 14.938 44.9559H37.0634C37.5369 44.9559 37.9225 45.3419 37.9225 45.815L37.9224 47.6158Z" fill="#997E4A"/>
</g>
<defs>
<clipPath id="clip0_60_1050">
<rect width="52" height="52" fill="white"/>
</clipPath>
</defs>
</svg>
