<svg width="52" height="52" viewBox="0 0 52 52" fill="none" xmlns="http://www.w3.org/2000/svg">
<g clip-path="url(#clip0_60_996)">
<path d="M15.1753 14.1571L13.8167 18.2021L9.17625 13.5385C8.84134 13.2019 8.38616 13.0128 7.91136 13.0128H2.02313C1.41896 13.0128 0.855831 13.3186 0.526626 13.8254C0.197599 14.3321 0.147281 14.9709 0.392981 15.523L12.0745 41.7625V50.2159C12.0745 51.2012 12.8735 52.0002 13.8588 52.0002H43.3001C44.2854 52.0002 45.0844 51.2012 45.0844 50.2159V40.2237H47.0324C49.6396 40.2237 51.7608 37.9023 51.7608 35.0492V18.2767C51.7608 15.4236 49.4394 13.1022 46.5863 13.1022H41.9835V9.98322C41.9835 7.42505 39.9025 5.34401 37.3443 5.34401H34.0799C33.9941 2.38277 31.5604 0 28.5794 0C25.5983 0 23.1647 2.38277 23.0789 5.34401H19.8145C17.2563 5.34401 15.1753 7.42505 15.1753 9.98322V14.1571ZM28.5794 3.56862C29.5925 3.56862 30.4249 4.35158 30.5073 5.34401H26.6516C26.7341 4.35158 27.5664 3.56862 28.5794 3.56862ZM19.8145 8.91263H37.3443C37.9245 8.91263 38.4149 9.40296 38.4149 9.98322V13.102H18.7439V9.98322C18.7439 9.40296 19.2342 8.91263 19.8145 8.91263ZM4.77079 16.5814H7.16962L12.5534 21.9922L12.166 23.1547C12.1054 23.3367 12.0745 23.527 12.0745 23.7188V32.9875L4.77079 16.5814ZM15.6431 24.0084L18.0889 16.6706H39.0697L41.5158 24.0084V48.4314H15.6431V24.0084ZM48.1922 35.049C48.1922 35.9044 47.6503 36.6549 47.0324 36.6549H45.0844V23.7188C45.0844 23.527 45.0536 23.3365 44.9927 23.1547L42.8314 16.6706H46.5863C47.4719 16.6706 48.1922 17.391 48.1922 18.2765V35.049Z" fill="#997E4A"/>
</g>
<defs>
<clipPath id="clip0_60_996">
<rect width="52" height="52" fill="white"/>
</clipPath>
</defs>
</svg>
