<svg width="53" height="52" viewBox="0 0 53 52" fill="none" xmlns="http://www.w3.org/2000/svg">
<g clip-path="url(#clip0_60_884)">
<path d="M22.4483 20.8759C11.8776 20.8759 0.5 18.2545 0.5 12.4947C0.5 6.73495 11.8776 4.1156 22.4483 4.1156C33.0191 4.1156 44.3966 6.73698 44.3966 12.4947C44.3966 18.2524 33.0109 20.8759 22.4483 20.8759ZM22.4483 8.17034C10.7078 8.17034 4.55474 11.3837 4.55474 12.4947C4.55474 13.6057 10.7078 16.8211 22.4483 16.8211C34.1888 16.8211 40.3419 13.6077 40.3419 12.4947C40.3419 11.3817 34.1909 8.17034 22.4483 8.17034Z" fill="#997E4A"/>
<path d="M22.4482 47.8783C12.883 47.8783 11.8511 44.1034 11.8511 42.4795L15.9058 42.4287C16.0376 42.7126 17.5784 43.8236 22.4482 43.8236C27.4314 43.8236 28.8911 42.6578 29.0351 42.2017L32.8993 43.4303C31.9626 46.3842 28.4472 47.8783 22.4482 47.8783Z" fill="#997E4A"/>
<path d="M22.4484 42.8769C16.2305 42.8769 12.269 42.7654 9.29279 40.5779C9.07518 40.4213 8.89079 40.2232 8.75025 39.995C8.60971 39.7667 8.51578 39.5129 8.47399 39.2481C8.43221 38.9833 8.44337 38.7129 8.50679 38.4524C8.5702 38.192 8.68465 37.9467 8.84348 37.7308C9.00232 37.5148 9.20238 37.3325 9.43212 37.1944C9.66186 37.0563 9.91672 36.9652 10.1819 36.9262C10.4471 36.8872 10.7175 36.9012 10.9772 36.9674C11.237 37.0336 11.481 37.1507 11.6952 37.3118C13.4651 38.6113 16.3135 38.8222 22.4402 38.8222C28.0439 38.8222 31.0606 38.7614 33.0758 37.4618C33.2997 37.3176 33.5499 37.219 33.8119 37.1715C34.0739 37.124 34.3428 37.1286 34.603 37.1849C34.8633 37.2413 35.1099 37.3484 35.3288 37.5001C35.5477 37.6518 35.7345 37.8451 35.8787 38.069C36.0229 38.2929 36.1215 38.543 36.169 38.805C36.2165 39.0671 36.2119 39.3359 36.1556 39.5962C36.0992 39.8564 35.9921 40.1031 35.8404 40.322C35.6887 40.5408 35.4954 40.7277 35.2715 40.8719C32.3075 42.7877 28.8346 42.8769 22.4484 42.8769Z" fill="#997E4A"/>
<path d="M30.9711 44.2575C30.5167 44.258 30.0753 44.1058 29.7177 43.8253C29.3601 43.5449 29.1071 43.1525 28.9993 42.711C28.8915 42.2695 28.9351 41.8046 29.1232 41.3909C29.3113 40.9772 29.633 40.6388 30.0365 40.4298C36.9823 36.8393 39.6422 19.7729 40.0801 13.4982C40.1227 12.9656 40.3738 12.4714 40.7788 12.1229C41.1838 11.7744 41.71 11.5999 42.243 11.6373C42.776 11.6747 43.2726 11.921 43.625 12.3226C43.9774 12.7242 44.157 13.2487 44.1247 13.782C43.9483 16.3244 42.0974 38.7613 31.8997 44.0324C31.6127 44.1808 31.2942 44.258 30.9711 44.2575Z" fill="#997E4A"/>
<path d="M32.4171 32.663C32.0802 32.6635 31.7485 32.5801 31.452 32.4202C31.1555 32.2603 30.9034 32.0291 30.7187 31.7473C30.534 31.4656 30.4224 31.1423 30.3939 30.8066C30.3655 30.4709 30.4212 30.1335 30.556 29.8247C31.5635 27.5916 32.2652 25.2327 32.6421 22.812C32.7343 22.2821 33.0333 21.8106 33.4732 21.5011C33.9131 21.1916 34.4579 21.0695 34.9878 21.1617C35.5177 21.254 35.9892 21.5529 36.2987 21.9928C36.6082 22.4327 36.7303 22.9775 36.6381 23.5074C36.2071 26.2398 35.4148 28.9027 34.2822 31.4264C34.127 31.7928 33.8675 32.1054 33.5358 32.3253C33.2041 32.5452 32.8151 32.6627 32.4171 32.663Z" fill="#997E4A"/>
<path d="M13.9273 44.2575C13.6042 44.258 13.2858 44.1808 12.9988 44.0324C2.80717 38.7613 0.952126 16.3244 0.773717 13.782C0.741477 13.2487 0.921069 12.7242 1.27344 12.3226C1.62582 11.921 2.12246 11.6747 2.65544 11.6373C3.18842 11.5999 3.71466 11.7744 4.11967 12.1229C4.52468 12.4714 4.77575 12.9656 4.81831 13.4982C5.26028 19.7831 7.92831 36.8454 14.8619 40.4298C15.2655 40.6388 15.5871 40.9772 15.7752 41.3909C15.9633 41.8046 16.0069 42.2695 15.8991 42.711C15.7913 43.1525 15.5383 43.5449 15.1807 43.8253C14.8231 44.1058 14.3817 44.258 13.9273 44.2575Z" fill="#997E4A"/>
<path d="M38.0386 38.7005C37.5831 38.701 37.1407 38.548 36.7827 38.2662C36.4248 37.9845 36.1721 37.5904 36.0655 37.1474C35.959 36.7045 36.0047 36.2386 36.1953 35.8248C36.3859 35.4111 36.7103 35.0736 37.1162 34.8668C38.3651 34.2322 40.0154 33.2854 41.5379 32.4157C42.6185 31.8074 43.6362 31.2155 44.4107 30.7938C47.9667 28.8779 49.177 26.4998 48.0052 23.7223C47.8572 23.3695 47.4437 22.5444 46.801 22.4836C46.1583 22.4228 44.7047 23.177 43.0889 25.5672C42.7824 25.999 42.3191 26.2937 41.7981 26.3883C41.2772 26.483 40.7399 26.3701 40.3011 26.0738C39.8623 25.7774 39.5568 25.3212 39.45 24.8026C39.3432 24.284 39.4435 23.7442 39.7295 23.2986C42.6509 18.9702 45.3919 18.2667 47.1963 18.4471C48.2229 18.5855 49.1912 19.0056 49.9936 19.6608C50.7959 20.3161 51.401 21.1809 51.7416 22.1592C53.7447 26.9053 51.7234 31.4709 46.3326 34.3741C45.5825 34.7796 44.5972 35.3412 43.5511 35.9392C41.9698 36.8434 40.2525 37.8247 38.9571 38.4836C38.6722 38.6271 38.3576 38.7015 38.0386 38.7005Z" fill="#997E4A"/>
</g>
<defs>
<clipPath id="clip0_60_884">
<rect width="52" height="52" fill="white" transform="translate(0.5)"/>
</clipPath>
</defs>
</svg>
