<svg width="53" height="52" viewBox="0 0 53 52" fill="none" xmlns="http://www.w3.org/2000/svg">
<g clip-path="url(#clip0_60_974)">
<path d="M50.8107 22.1805H45.2471C44.6711 22.1805 44.1347 22.4743 43.8248 22.96L42.7478 24.6472C40.2875 19.6361 35.686 15.8455 30.0959 14.5043C31.642 11.231 29.2391 7.4397 25.6131 7.4397C22.8806 7.4397 20.6576 9.6628 20.6576 12.3951C20.6576 13.15 20.828 13.8658 21.1313 14.5068C16.8743 15.5317 13.2489 17.9672 10.687 21.1849C5.69787 19.4341 0.5 23.1613 0.5 28.404C0.5 31.709 2.6061 34.577 5.63723 35.6301C5.43685 36.6186 4.63695 39.3465 6.77788 41.9816C8.01288 43.5015 9.84446 44.38 11.8029 44.3921L39.3046 44.5601C39.3182 44.5601 39.3316 44.5602 39.3452 44.5602C43.4413 44.56 46.5187 40.8319 45.7555 36.816L45.4785 35.3577L52.2329 24.7756C52.9489 23.6539 52.1411 22.1805 50.8107 22.1805ZM25.6131 10.8143C26.4847 10.8143 27.1938 11.5235 27.1938 12.3952C27.1938 13.2666 26.485 13.9758 25.6136 13.9762C25.6133 13.9762 25.613 13.9762 25.6126 13.9762C24.7411 13.976 24.0321 13.2668 24.0321 12.3952C24.0321 11.5235 24.7414 10.8143 25.6131 10.8143ZM32.456 18.9102H18.7869C23.0789 16.8304 28.159 16.8302 32.456 18.9102ZM6.31953 32.2639C4.87399 31.5694 3.87452 30.082 3.87452 28.4039C3.87452 25.8288 6.15287 23.8116 8.73885 24.1683C7.24903 27.001 6.97491 29.0303 6.31953 32.2639ZM42.3832 33.87C42.0626 34.2571 41.9313 34.7671 42.0252 35.2609L42.4402 37.4459C42.8094 39.3889 41.3189 41.1856 39.3447 41.1856C39.3381 41.1856 39.3315 41.1856 39.325 41.1855L11.8233 41.0175C9.83745 41.0054 8.36012 39.183 8.75398 37.2402L10.2353 29.9324C10.8204 27.0458 12.1847 24.4155 14.1956 22.2848H37.0506C38.7917 24.1318 40.0635 26.3806 40.7454 28.8272C41.1363 30.23 43.0095 30.5099 43.7929 29.2821L46.1719 25.5551H47.7321C41.8347 34.794 42.6426 33.5563 42.3832 33.87Z" fill="#997E4A"/>
</g>
<defs>
<clipPath id="clip0_60_974">
<rect width="52" height="52" fill="white" transform="translate(0.5)"/>
</clipPath>
</defs>
</svg>
