<svg width="16" height="17" viewBox="0 0 16 17" fill="none" xmlns="http://www.w3.org/2000/svg">
<path d="M3.3335 8.50016V6.66192C3.3335 5.89082 3.3335 5.50527 3.4384 5.19427C3.638 4.60253 4.10253 4.138 4.69427 3.9384C5.00527 3.8335 5.39082 3.8335 6.16192 3.8335V3.8335C6.49937 3.8335 6.66809 3.8335 6.82896 3.8599C7.13297 3.90979 7.42134 4.02924 7.67159 4.20893C7.80401 4.30401 7.92331 4.42331 8.16192 4.66192L8.367 4.867C8.74178 5.24178 8.92916 5.42916 9.15055 5.55893C9.30894 5.65177 9.47936 5.72236 9.657 5.76871C9.90531 5.8335 10.1703 5.8335 10.7003 5.8335V5.8335C11.9148 5.8335 12.522 5.8335 12.9773 6.08844C13.2992 6.26869 13.565 6.53446 13.7452 6.85637C14.0002 7.31167 14.0002 7.91889 14.0002 9.13333V9.83349C14.0002 11.0796 14.0002 11.7027 13.7322 12.1668C13.5567 12.4709 13.3042 12.7233 13.0002 12.8989C12.5361 13.1668 11.913 13.1668 10.6668 13.1668V13.1668" stroke="white" stroke-opacity="0.72"/>
<path d="M2.6665 11.4998H8.6665M8.6665 11.4998L6.33317 9.1665M8.6665 11.4998L6.33317 13.8332" stroke="white" stroke-opacity="0.72"/>
</svg>
