<svg width="16" height="17" viewBox="0 0 16 17" fill="none" xmlns="http://www.w3.org/2000/svg">
<path opacity="0.8" d="M11.3335 13.8182H4.66683C2.66683 13.8182 1.3335 12.8182 1.3335 10.4849V5.8182C1.3335 3.48486 2.66683 2.48486 4.66683 2.48486H11.3335C13.3335 2.48486 14.6668 3.48486 14.6668 5.8182V10.4849C14.6668 12.8182 13.3335 13.8182 11.3335 13.8182Z" fill="#FF480B" fill-opacity="0.38"/>
<path d="M8.00018 8.73134C7.44018 8.73134 6.87351 8.55801 6.44018 8.20468L4.35351 6.53801C4.14018 6.36468 4.10018 6.05135 4.27351 5.83801C4.44685 5.62468 4.76018 5.58468 4.97352 5.75802L7.06017 7.42468C7.56684 7.83135 8.42684 7.83135 8.93351 7.42468L11.0202 5.75802C11.2335 5.58468 11.5535 5.61801 11.7202 5.83801C11.8935 6.05135 11.8602 6.37135 11.6402 6.53801L9.55351 8.20468C9.12685 8.55801 8.56018 8.73134 8.00018 8.73134Z" fill="#FF480B"/>
</svg>
