<svg width="16" height="17" viewBox="0 0 16 17" fill="none" xmlns="http://www.w3.org/2000/svg">
<path d="M11.7468 7.3181C11.4602 7.3181 11.2335 7.08477 11.2335 6.80477C11.2335 6.5581 10.9868 6.04477 10.5735 5.5981C10.1668 5.16477 9.72016 4.91143 9.34683 4.91143C9.06016 4.91143 8.8335 4.6781 8.8335 4.3981C8.8335 4.1181 9.06683 3.88477 9.34683 3.88477C10.0135 3.88477 10.7135 4.24477 11.3268 4.89143C11.9002 5.4981 12.2668 6.25143 12.2668 6.7981C12.2668 7.08477 12.0335 7.3181 11.7468 7.3181Z" fill="#FF480B"/>
<path d="M14.1532 7.3182C13.8665 7.3182 13.6398 7.08486 13.6398 6.80486C13.6398 4.4382 11.7132 2.5182 9.35318 2.5182C9.06651 2.5182 8.83984 2.28486 8.83984 2.00486C8.83984 1.72486 9.06651 1.48486 9.34651 1.48486C12.2798 1.48486 14.6665 3.87153 14.6665 6.80486C14.6665 7.08486 14.4332 7.3182 14.1532 7.3182Z" fill="#FF480B"/>
<path opacity="0.4" d="M7.86016 9.62486L5.68016 11.8049C5.44016 11.5915 5.20683 11.3715 4.98016 11.1449C4.2935 10.4515 3.6735 9.72486 3.12016 8.96486C2.5735 8.20486 2.1335 7.44486 1.8135 6.69153C1.4935 5.93153 1.3335 5.20486 1.3335 4.51153C1.3335 4.0582 1.4135 3.62486 1.5735 3.22486C1.7335 2.8182 1.98683 2.44486 2.34016 2.11153C2.76683 1.69153 3.2335 1.48486 3.72683 1.48486C3.9135 1.48486 4.10016 1.52486 4.26683 1.60486C4.44016 1.68486 4.5935 1.80486 4.7135 1.9782L6.26016 4.1582C6.38016 4.32486 6.46683 4.4782 6.52683 4.62486C6.58683 4.76486 6.62016 4.90486 6.62016 5.03153C6.62016 5.19153 6.5735 5.35153 6.48016 5.50486C6.3935 5.6582 6.26683 5.8182 6.10683 5.9782L5.60016 6.50486C5.52683 6.5782 5.4935 6.66486 5.4935 6.77153C5.4935 6.82486 5.50016 6.87153 5.5135 6.92486C5.5335 6.9782 5.5535 7.0182 5.56683 7.0582C5.68683 7.2782 5.8935 7.56486 6.18683 7.91153C6.48683 8.2582 6.80683 8.61153 7.1535 8.96486C7.3935 9.1982 7.62683 9.42486 7.86016 9.62486Z" fill="#FF480B"/>
<path d="M14.6466 12.3712C14.6466 12.5579 14.6132 12.7512 14.5466 12.9379C14.5266 12.9912 14.5066 13.0446 14.4799 13.0979C14.3666 13.3379 14.2199 13.5646 14.0266 13.7779C13.6999 14.1379 13.3399 14.3979 12.9332 14.5646C12.9266 14.5646 12.9199 14.5712 12.9132 14.5712C12.5199 14.7312 12.0932 14.8179 11.6332 14.8179C10.9532 14.8179 10.2266 14.6579 9.4599 14.3312C8.69324 14.0046 7.92657 13.5646 7.16657 13.0112C6.90657 12.8179 6.64657 12.6246 6.3999 12.4179L8.5799 10.2379C8.76657 10.3779 8.93324 10.4846 9.07324 10.5579C9.10657 10.5712 9.14657 10.5912 9.19324 10.6112C9.24657 10.6312 9.2999 10.6379 9.3599 10.6379C9.47324 10.6379 9.5599 10.5979 9.63324 10.5246L10.1399 10.0246C10.3066 9.8579 10.4666 9.73123 10.6199 9.65123C10.7732 9.5579 10.9266 9.51123 11.0932 9.51123C11.2199 9.51123 11.3532 9.5379 11.4999 9.5979C11.6466 9.6579 11.7999 9.74456 11.9666 9.8579L14.1732 11.4246C14.3466 11.5446 14.4666 11.6846 14.5399 11.8512C14.6066 12.0179 14.6466 12.1846 14.6466 12.3712Z" fill="#FF480B"/>
</svg>
