<svg width="26" height="26" viewBox="0 0 26 26" fill="none" xmlns="http://www.w3.org/2000/svg">
<rect width="26" height="26" rx="13" fill="#419FD9"/>
<rect width="26" height="26" rx="13" fill="url(#paint0_linear_36_229)"/>
<path d="M5.84316 12.7136C9.62361 11.0319 12.1445 9.9232 13.4058 9.38754C17.0072 7.85812 17.7556 7.59245 18.2433 7.58358C18.3506 7.58175 18.5905 7.60889 18.7458 7.73761C18.877 7.84631 18.9131 7.99314 18.9304 8.09619C18.9477 8.19924 18.9692 8.434 18.9521 8.61743C18.7569 10.7111 17.9125 15.7918 17.4829 18.1368C17.3011 19.129 16.9431 19.4617 16.5966 19.4943C15.8435 19.565 15.2717 18.9861 14.5423 18.4979C13.4009 17.734 12.7561 17.2585 11.6482 16.5131C10.3679 15.6516 11.1979 15.1781 11.9275 14.4043C12.1185 14.2018 15.4366 11.1203 15.5008 10.8408C15.5088 10.8058 15.5163 10.6755 15.4405 10.6067C15.3646 10.5379 15.2527 10.5614 15.172 10.5801C15.0575 10.6067 13.2342 11.8371 9.70197 14.2716C9.18442 14.6345 8.71564 14.8113 8.29563 14.802C7.8326 14.7918 6.94192 14.5347 6.2798 14.3149C5.46767 14.0454 4.82221 13.9029 4.87841 13.4451C4.90769 13.2067 5.22927 12.9628 5.84316 12.7136Z" fill="white"/>
<defs>
<linearGradient id="paint0_linear_36_229" x1="13" y1="0" x2="13" y2="25.8071" gradientUnits="userSpaceOnUse">
<stop stop-color="#2AABEE"/>
<stop offset="1" stop-color="#229ED9"/>
</linearGradient>
</defs>
</svg>
