<svg width="26" height="26" viewBox="0 0 26 26" fill="none" xmlns="http://www.w3.org/2000/svg">
<rect width="26" height="26" rx="13" fill="#0DC143"/>
<path d="M18.8233 7.15614C17.4296 5.72146 15.503 4.94263 13.5355 4.94263C9.3544 4.94263 5.99314 8.34488 6.03413 12.485C6.03413 13.7967 6.40305 15.0674 7.01791 16.2151L5.95215 20.1093L9.92827 19.0845C11.035 19.6994 12.2648 19.9863 13.4945 19.9863C17.6346 19.9863 20.9958 16.5841 20.9958 12.444C20.9958 10.4354 20.217 8.54983 18.8233 7.15614ZM13.5355 18.7156C12.4287 18.7156 11.322 18.4287 10.3792 17.8548L10.1332 17.7318L7.75575 18.3467L8.37062 16.0102L8.20665 15.7642C6.40305 12.8539 7.26386 9.00073 10.2152 7.19713C13.1666 5.39353 16.9787 6.25434 18.7823 9.20569C20.5859 12.157 19.7251 15.9692 16.7738 17.7728C15.831 18.3877 14.6832 18.7156 13.5355 18.7156ZM17.1427 14.1656L16.6918 13.9606C16.6918 13.9606 16.0359 13.6737 15.626 13.4688C15.585 13.4688 15.544 13.4278 15.503 13.4278C15.3801 13.4278 15.2981 13.4688 15.2161 13.5097C15.2161 13.5097 15.1751 13.5507 14.6012 14.2066C14.5603 14.2886 14.4783 14.3296 14.3963 14.3296H14.3553C14.3143 14.3296 14.2323 14.2886 14.1913 14.2476L13.9864 14.1656C13.5355 13.9606 13.1256 13.7147 12.7976 13.3868C12.7157 13.3048 12.5927 13.2228 12.5107 13.1408C12.2238 12.8539 11.9368 12.526 11.7319 12.157L11.6909 12.0751C11.6499 12.0341 11.6499 11.9931 11.6089 11.9111C11.6089 11.8291 11.6089 11.7471 11.6499 11.7061C11.6499 11.7061 11.8139 11.5012 11.9368 11.3782C12.0188 11.2962 12.0598 11.1733 12.1418 11.0913C12.2238 10.9683 12.2648 10.8043 12.2238 10.6814C12.1828 10.4764 11.6909 9.36965 11.5679 9.12371C11.4859 9.00073 11.404 8.95974 11.281 8.91875H11.158C11.076 8.91875 10.953 8.91875 10.8301 8.91875C10.7481 8.91875 10.6661 8.95974 10.5841 8.95974L10.5431 9.00073C10.4612 9.04173 10.3792 9.12371 10.2972 9.1647C10.2152 9.24668 10.1742 9.32866 10.0922 9.41064C9.8053 9.77956 9.64134 10.2305 9.64134 10.6814C9.64134 11.0093 9.72332 11.3372 9.84629 11.6242L9.88728 11.7471C10.2562 12.526 10.7481 13.2228 11.404 13.8377L11.5679 14.0016C11.6909 14.1246 11.8139 14.2066 11.8958 14.3296C12.7567 15.0674 13.7404 15.6003 14.8472 15.8872C14.9702 15.9282 15.1341 15.9282 15.2571 15.9692C15.3801 15.9692 15.544 15.9692 15.667 15.9692C15.872 15.9692 16.1179 15.8872 16.2819 15.8052C16.4049 15.7233 16.4868 15.7233 16.5688 15.6413L16.6508 15.5593C16.7328 15.4773 16.8148 15.4363 16.8967 15.3543C16.9787 15.2724 17.0607 15.1904 17.1017 15.1084C17.1837 14.9444 17.2247 14.7395 17.2657 14.5345C17.2657 14.4525 17.2657 14.3296 17.2657 14.2476C17.2657 14.2476 17.2247 14.2066 17.1427 14.1656Z" fill="white"/>
</svg>
